<?xml version="1.0" encoding="UTF-8" standalone="no"?>
<!DOCTYPE svg PUBLIC "-//W3C//DTD SVG 1.1//EN" "http://www.w3.org/Graphics/SVG/1.1/DTD/svg11.dtd">
<svg version="1.1" xmlns="http://www.w3.org/2000/svg" xmlns:xlink="http://www.w3.org/1999/xlink" preserveAspectRatio="xMidYMid meet" viewBox="0 0 640 640" width="200" height="200"><defs><path d="M333.27 32.19L341.31 33L349.25 34.12L357.1 35.54L364.84 37.26L372.46 39.27L379.96 41.57L387.34 44.15L394.58 47L401.68 50.12L408.64 53.5L415.43 57.13L422.07 61.01L428.55 65.13L434.85 69.48L440.96 74.06L446.9 78.87L452.64 83.89L458.17 89.11L463.51 94.54L468.63 100.17L473.53 105.98L478.2 111.98L482.65 118.15L486.85 124.49L490.81 131L494.51 137.66L497.96 144.48L501.14 151.43L504.05 158.53L506.68 165.76L509.03 173.11L511.08 180.58L512.84 188.17L514.29 195.86L515.43 203.64L516.26 211.52L516.76 219.49L516.92 227.54L516.55 238.69L515.47 250.08L513.72 261.67L511.32 273.45L508.33 285.39L504.77 297.45L500.69 309.61L496.12 321.84L491.1 334.13L485.67 346.43L479.87 358.73L473.72 370.99L467.28 383.19L460.57 395.31L453.64 407.31L446.52 419.17L439.25 430.86L431.87 442.36L424.42 453.64L416.92 464.66L409.43 475.42L401.97 485.86L394.59 495.98L387.32 505.75L380.2 515.13L373.27 524.1L366.57 532.63L360.12 540.7L353.98 548.28L348.17 555.34L342.74 561.85L337.72 567.79L333.15 573.14L329.07 577.86L325.52 581.93L322.52 585.32L320.13 588L318.37 589.95L317.29 591.14L316.92 591.54L316.55 591.14L315.47 589.95L313.72 588L311.32 585.32L308.33 581.93L304.77 577.86L300.69 573.14L296.12 567.79L291.1 561.85L285.67 555.34L279.87 548.28L273.72 540.7L267.28 532.63L260.57 524.1L253.64 515.13L246.52 505.75L239.25 495.98L231.87 485.86L224.42 475.42L216.92 464.66L209.43 453.64L201.97 442.36L194.59 430.86L187.32 419.17L180.2 407.31L173.27 395.31L166.57 383.19L160.12 370.99L153.98 358.73L148.17 346.43L142.74 334.13L137.72 321.84L133.15 309.61L129.07 297.45L125.52 285.39L122.52 273.45L120.13 261.67L118.37 250.08L117.29 238.69L116.92 227.54L117.09 219.49L117.59 211.52L118.41 203.64L119.55 195.86L121 188.17L122.76 180.58L124.82 173.11L127.16 165.76L129.79 158.53L132.7 151.43L135.89 144.48L139.33 137.66L143.04 131L147 124.49L151.2 118.15L155.64 111.98L160.32 105.98L165.22 100.17L170.34 94.54L175.67 89.11L181.21 83.89L186.95 78.87L192.88 74.06L199 69.48L205.3 65.13L211.77 61.01L218.41 57.13L225.21 53.5L232.16 50.12L239.26 47L246.51 44.15L253.88 41.57L261.38 39.27L269.01 37.26L276.75 35.54L284.59 34.12L292.54 33L300.58 32.19L308.71 31.7L316.92 31.54L325.13 31.7L333.27 32.19ZM310.99 157.77L308.08 158.05L305.2 158.44L302.37 158.94L299.58 159.54L296.83 160.25L294.14 161.06L291.49 161.96L288.89 162.97L286.34 164.06L283.86 165.25L281.43 166.53L279.05 167.9L276.75 169.35L274.5 170.89L272.32 172.51L270.21 174.21L268.18 175.99L266.21 177.84L264.32 179.77L262.5 181.77L260.77 183.83L259.12 185.97L257.55 188.17L256.06 190.43L254.67 192.75L253.36 195.13L252.15 197.57L251.03 200.07L250.01 202.61L249.08 205.21L248.26 207.85L247.54 210.54L246.92 213.28L246.41 216.06L246.01 218.87L245.73 221.73L245.55 224.62L245.49 227.54L245.55 230.46L245.73 233.35L246.01 236.21L246.41 239.02L246.92 241.8L247.54 244.54L248.26 247.23L249.08 249.87L250.01 252.47L251.03 255.01L252.15 257.51L253.36 259.94L254.67 262.33L256.06 264.65L257.55 266.91L259.12 269.11L260.77 271.25L262.51 273.31L264.32 275.31L266.21 277.24L268.18 279.09L270.21 280.87L272.32 282.57L274.5 284.19L276.75 285.73L279.05 287.18L281.43 288.55L283.86 289.83L286.34 291.02L288.89 292.11L291.49 293.12L294.14 294.02L296.83 294.83L299.58 295.54L302.37 296.14L305.2 296.64L308.08 297.03L310.99 297.31L313.94 297.48L316.92 297.54L319.91 297.48L322.86 297.31L325.77 297.03L328.64 296.64L331.48 296.14L334.27 295.54L337.01 294.83L339.71 294.02L342.36 293.12L344.96 292.11L347.5 291.02L349.99 289.83L352.42 288.55L354.79 287.18L357.1 285.73L359.34 284.19L361.52 282.57L363.63 280.87L365.67 279.09L367.64 277.24L369.53 275.31L371.34 273.31L373.08 271.25L374.73 269.11L376.3 266.91L377.78 264.65L379.18 262.33L380.48 259.94L381.7 257.51L382.82 255.01L383.84 252.47L384.76 249.87L385.59 247.23L386.31 244.54L386.92 241.8L387.43 239.02L387.83 236.21L388.12 233.35L388.29 230.46L388.35 227.54L388.29 224.62L388.12 221.73L387.83 218.87L387.43 216.06L386.92 213.28L386.31 210.54L385.59 207.85L384.76 205.21L383.84 202.61L382.82 200.07L381.7 197.57L380.48 195.13L379.18 192.75L377.78 190.43L376.3 188.17L374.73 185.97L373.08 183.83L371.34 181.77L369.53 179.77L367.64 177.84L365.67 175.99L363.63 174.21L361.52 172.51L359.34 170.89L357.1 169.35L354.79 167.9L352.42 166.53L349.99 165.25L347.5 164.06L344.96 162.97L342.36 161.96L339.71 161.06L337.01 160.25L334.27 159.54L331.48 158.94L328.64 158.44L325.77 158.05L322.86 157.77L319.91 157.6L316.92 157.54L313.94 157.6L310.99 157.77Z" id="a2j8Hhin0p"></path><path d="M416.35 239.34C416.35 289.1 369.09 329.49 310.88 329.49C252.66 329.49 205.4 289.1 205.4 239.34C205.4 189.59 252.66 149.2 310.88 149.2C369.09 149.2 416.35 189.59 416.35 239.34Z" id="e20uaHjyYc"></path><path d="M324.8 183.16L327.08 183.21L329.35 183.28L331.61 183.37L333.86 183.49L336.11 183.62L338.35 183.77L340.59 183.95L342.82 184.14L345.04 184.36L347.25 184.6L349.46 184.85L351.66 185.13L353.85 185.43L356.04 185.75L358.22 186.09L360.39 186.45L362.55 186.83L364.71 187.23L366.85 187.65L368.99 188.09L371.12 188.55L373.25 189.04L375.36 189.54L377.47 190.06L379.57 190.61L381.66 191.17L383.74 191.76L385.82 192.36L387.88 192.99L389.94 193.64L391.99 194.3L394.03 194.99L396.06 195.7L398.08 196.43L400.09 197.18L402.09 197.94L404.09 198.73L406.07 199.54L406.51 199.73L406.94 199.93L407.35 200.14L407.74 200.36L408.11 200.58L408.47 200.82L408.81 201.05L409.13 201.3L409.43 201.55L409.73 201.81L410 202.08L410.26 202.35L410.5 202.62L410.73 202.9L410.94 203.19L411.13 203.48L411.31 203.77L411.48 204.07L411.63 204.37L411.76 204.68L411.88 204.98L411.99 205.29L412.08 205.61L412.16 205.92L412.22 206.24L412.27 206.55L412.3 206.87L412.33 207.19L412.33 207.51L412.33 207.82L412.31 208.14L412.28 208.46L412.24 208.78L412.18 209.09L412.11 209.41L412.03 209.72L411.93 210.03L411.83 210.33L411.71 210.64L411.58 210.94L320.18 401.77L320.01 401.43L319.53 400.43L318.76 398.8L317.69 396.58L316.37 393.8L314.79 390.5L312.97 386.71L310.94 382.47L308.71 377.8L306.29 372.75L303.71 367.35L300.97 361.62L298.09 355.61L295.1 349.36L292 342.88L288.81 336.22L285.56 329.42L282.25 322.5L278.9 315.5L275.53 308.46L272.15 301.4L268.79 294.37L265.45 287.39L262.15 280.51L258.92 273.75L255.76 267.15L252.69 260.74L249.73 254.56L246.9 248.65L244.21 243.03L241.67 237.73L239.31 232.81L237.15 228.28L235.18 224.18L233.44 220.55L231.94 217.42L230.7 214.83L229.73 212.8L229.04 211.38L228.66 210.59L228.46 210.14L228.27 209.7L228.12 209.27L227.98 208.85L227.87 208.44L227.79 208.04L227.73 207.65L227.68 207.27L227.67 206.9L227.67 206.54L227.69 206.18L227.73 205.84L227.79 205.5L227.87 205.18L227.97 204.86L228.08 204.55L228.21 204.25L228.36 203.95L228.52 203.67L228.7 203.39L228.89 203.12L229.09 202.86L229.31 202.6L229.54 202.36L229.78 202.12L230.04 201.89L230.3 201.66L230.57 201.44L230.86 201.23L231.15 201.03L231.45 200.83L231.75 200.63L232.07 200.45L232.38 200.27L232.71 200.1L233.04 199.93L233.37 199.77L233.71 199.61L234.05 199.46L234.4 199.31L236.24 198.55L238.1 197.81L239.98 197.08L241.89 196.37L243.82 195.68L245.77 195L247.75 194.34L249.74 193.7L251.75 193.07L253.78 192.46L255.83 191.87L257.9 191.3L259.98 190.74L262.08 190.21L264.19 189.69L266.32 189.19L268.46 188.71L270.62 188.24L272.79 187.8L274.97 187.37L277.17 186.97L279.37 186.58L281.59 186.22L283.81 185.87L286.05 185.54L288.29 185.23L290.54 184.95L292.8 184.68L295.07 184.43L297.34 184.21L299.61 184L301.89 183.82L304.18 183.65L306.47 183.51L308.76 183.39L311.05 183.29L313.35 183.22L315.64 183.16L317.94 183.13L320.23 183.12L322.52 183.13L324.8 183.16ZM317.54 288L316.25 288.22L315 288.53L313.79 288.92L312.63 289.39L311.52 289.94L310.46 290.55L309.45 291.24L308.49 291.99L307.6 292.8L306.76 293.67L305.98 294.6L305.27 295.59L304.62 296.62L304.04 297.7L303.53 298.83L303.09 299.99L302.73 301.19L302.44 302.43L302.24 303.7L302.11 305L302.07 306.33L302.11 307.65L302.24 308.95L302.44 310.22L302.73 311.46L303.09 312.66L303.53 313.82L304.04 314.95L304.62 316.03L305.27 317.06L305.98 318.05L306.76 318.98L307.6 319.85L308.49 320.66L309.45 321.41L310.46 322.1L311.52 322.71L312.63 323.26L313.79 323.73L315 324.12L316.25 324.43L317.54 324.65L318.87 324.79L320.23 324.84L321.6 324.79L322.93 324.65L324.22 324.43L325.47 324.12L326.68 323.73L327.84 323.26L328.95 322.71L330.01 322.1L331.02 321.41L331.97 320.66L332.87 319.85L333.71 318.98L334.49 318.05L335.2 317.06L335.85 316.03L336.43 314.95L336.94 313.82L337.38 312.66L337.74 311.46L338.02 310.22L338.23 308.95L338.36 307.65L338.4 306.33L338.36 305L338.23 303.7L338.02 302.43L337.74 301.19L337.38 299.99L336.94 298.83L336.43 297.7L335.85 296.62L335.2 295.59L334.49 294.6L333.71 293.67L332.87 292.8L331.97 291.99L331.02 291.24L330.01 290.55L328.95 289.94L327.84 289.39L326.68 288.92L325.47 288.53L324.22 288.22L322.93 288L321.6 287.86L320.23 287.81L318.87 287.86L317.54 288ZM357.16 216.85L355.87 217.07L354.62 217.38L353.42 217.77L352.26 218.24L351.14 218.79L350.08 219.4L349.07 220.09L348.12 220.84L347.22 221.65L346.38 222.53L345.61 223.45L344.89 224.44L344.24 225.47L343.66 226.55L343.15 227.68L342.72 228.84L342.35 230.05L342.07 231.28L341.86 232.55L341.74 233.85L341.69 235.18L341.74 236.5L341.86 237.8L342.07 239.07L342.35 240.31L342.72 241.51L343.15 242.68L343.66 243.8L344.24 244.88L344.89 245.91L345.61 246.9L346.38 247.83L347.22 248.7L348.12 249.51L349.07 250.26L350.08 250.95L351.14 251.57L352.26 252.11L353.42 252.58L354.62 252.97L355.87 253.28L357.16 253.5L358.49 253.64L359.86 253.69L361.23 253.64L362.56 253.5L363.85 253.28L365.1 252.97L366.3 252.58L367.46 252.11L368.57 251.57L369.64 250.95L370.64 250.26L371.6 249.51L372.5 248.7L373.34 247.83L374.11 246.9L374.83 245.91L375.47 244.88L376.05 243.8L376.56 242.68L377 241.51L377.36 240.31L377.65 239.07L377.86 237.8L377.98 236.5L378.03 235.18L377.98 233.85L377.86 232.55L377.65 231.28L377.36 230.05L377 228.84L376.56 227.68L376.05 226.55L375.47 225.47L374.83 224.44L374.11 223.45L373.34 222.53L372.5 221.65L371.6 220.84L370.64 220.09L369.64 219.4L368.57 218.79L367.46 218.24L366.3 217.77L365.1 217.38L363.85 217.07L362.56 216.85L361.23 216.71L359.86 216.67L358.49 216.71L357.16 216.85ZM277.91 205.28L276.62 205.5L275.37 205.81L274.17 206.2L273.01 206.67L271.89 207.22L270.83 207.83L269.82 208.52L268.87 209.27L267.97 210.08L267.13 210.96L266.36 211.89L265.64 212.87L264.99 213.9L264.41 214.98L263.9 216.11L263.47 217.27L263.1 218.48L262.82 219.71L262.61 220.98L262.48 222.28L262.44 223.61L262.48 224.93L262.61 226.23L262.82 227.5L263.1 228.74L263.47 229.94L263.9 231.11L264.41 232.23L264.99 233.31L265.64 234.34L266.36 235.33L267.13 236.26L267.97 237.13L268.87 237.94L269.82 238.7L270.83 239.38L271.89 240L273.01 240.54L274.17 241.01L275.37 241.4L276.62 241.71L277.91 241.93L279.24 242.07L280.61 242.12L281.98 242.07L283.31 241.93L284.6 241.71L285.85 241.4L287.05 241.01L288.21 240.54L289.32 240L290.38 239.38L291.39 238.7L292.35 237.94L293.25 237.13L294.08 236.26L294.86 235.33L295.58 234.34L296.22 233.31L296.8 232.23L297.31 231.11L297.75 229.94L298.11 228.74L298.4 227.5L298.61 226.23L298.73 224.93L298.77 223.61L298.73 222.28L298.61 220.98L298.4 219.71L298.11 218.48L297.75 217.27L297.31 216.11L296.8 214.98L296.22 213.9L295.58 212.87L294.86 211.89L294.08 210.96L293.25 210.08L292.35 209.27L291.39 208.52L290.38 207.83L289.32 207.22L288.21 206.67L287.05 206.2L285.85 205.81L284.6 205.5L283.31 205.28L281.98 205.14L280.61 205.1L279.24 205.14L277.91 205.28Z" id="bSTKA5faM"></path><path d="M318.97 129.12C286.39 129.12 254.31 137.11 227.31 151.16C224.92 152.41 221.68 154.86 221.68 160.27C222.17 161.86 226.1 174.58 226.6 176.17C228.02 179.4 231 181.58 234.25 181.58C235.16 181.58 236.43 181.38 237.95 180.59C262.77 168.12 290.19 161.06 319.02 161.06C347.85 161.06 377.39 168.71 400.09 180.59C401.91 181.51 402.92 181.58 403.78 181.58C407.13 181.58 409.97 179.4 411.38 176.23C411.88 174.64 415.85 161.92 416.35 160.33C416.25 155.52 413.82 153.21 410.62 151.56C384.18 137.97 351.55 129.12 318.97 129.12Z" id="a15oErFW3Q"></path></defs><g><g><g><use xlink:href="#a2j8Hhin0p" opacity="1" fill="#db2057" fill-opacity="1"></use><g><use xlink:href="#a2j8Hhin0p" opacity="1" fill-opacity="0" stroke="#000000" stroke-width="1" stroke-opacity="0"></use></g></g><g><use xlink:href="#e20uaHjyYc" opacity="1" fill="#db2057" fill-opacity="1"></use></g><g><use xlink:href="#bSTKA5faM" opacity="1" fill="#ffffff" fill-opacity="1"></use><g><use xlink:href="#bSTKA5faM" opacity="1" fill-opacity="0" stroke="#000000" stroke-width="1" stroke-opacity="0"></use></g></g><g><use xlink:href="#a15oErFW3Q" opacity="1" fill="#ffffff" fill-opacity="1"></use><g><use xlink:href="#a15oErFW3Q" opacity="1" fill-opacity="0" stroke="#000000" stroke-width="1" stroke-opacity="0"></use></g></g></g></g></svg>