<?xml version="1.0" encoding="UTF-8" standalone="no"?>
<!DOCTYPE svg PUBLIC "-//W3C//DTD SVG 1.1//EN" "http://www.w3.org/Graphics/SVG/1.1/DTD/svg11.dtd">
<svg version="1.1" xmlns="http://www.w3.org/2000/svg" xmlns:xlink="http://www.w3.org/1999/xlink" preserveAspectRatio="xMidYMid meet" viewBox="0 0 640 640" width="200" height="200"><defs><path d="M336.34 39.19L344.38 40L352.33 41.12L360.18 42.54L367.92 44.26L375.54 46.28L383.04 48.57L390.42 51.15L397.66 54.01L404.76 57.12L411.71 60.5L418.51 64.13L425.15 68.01L431.62 72.13L437.92 76.48L444.04 81.07L449.97 85.87L455.71 90.89L461.25 96.11L466.59 101.54L471.71 107.17L476.61 112.98L481.28 118.98L485.72 125.15L489.93 131.49L493.89 138L497.59 144.66L501.04 151.48L504.22 158.44L507.13 165.53L509.76 172.76L512.11 180.11L514.16 187.58L515.92 195.17L517.37 202.86L518.51 210.65L519.33 218.53L519.83 226.49L520 234.54L519.63 245.69L518.55 257.08L516.79 268.68L514.4 280.45L511.41 292.39L507.85 304.45L503.77 316.61L499.2 328.84L494.18 341.13L488.75 353.43L482.94 365.73L476.8 377.99L470.36 390.19L463.65 402.31L456.72 414.31L449.6 426.17L442.33 437.86L434.95 449.36L427.49 460.64L420 471.67L412.51 482.42L405.05 492.87L397.67 502.99L390.4 512.75L383.28 522.13L376.35 531.1L369.64 539.63L363.2 547.7L357.06 555.28L351.25 562.34L345.82 568.85L340.8 574.8L336.23 580.14L332.15 584.86L328.59 588.93L325.6 592.32L323.21 595L321.45 596.95L320.37 598.14L320 598.54L319.63 598.14L318.55 596.95L316.79 595L314.4 592.32L311.41 588.93L307.85 584.86L303.77 580.14L299.2 574.8L294.18 568.85L288.75 562.34L282.94 555.28L276.8 547.7L270.36 539.63L263.65 531.1L256.72 522.13L249.6 512.75L242.33 502.99L234.95 492.87L227.49 482.42L220 471.67L212.51 460.64L205.05 449.36L197.67 437.86L190.4 426.17L183.28 414.31L176.35 402.31L169.64 390.19L163.2 377.99L157.06 365.73L151.25 353.43L145.82 341.13L140.8 328.84L136.23 316.61L132.15 304.45L128.59 292.39L125.6 280.45L123.21 268.68L121.45 257.08L120.37 245.69L120 234.54L120.17 226.49L120.67 218.53L121.49 210.65L122.63 202.86L124.08 195.17L125.84 187.58L127.89 180.11L130.24 172.76L132.87 165.53L135.78 158.44L138.96 151.48L142.41 144.66L146.11 138L150.07 131.49L154.28 125.15L158.72 118.98L163.39 112.98L168.29 107.17L173.41 101.54L178.75 96.11L184.29 90.89L190.03 85.87L195.96 81.07L202.08 76.48L208.38 72.13L214.85 68.01L221.49 64.13L228.29 60.5L235.24 57.12L242.34 54.01L249.58 51.15L256.96 48.57L264.46 46.28L272.08 44.26L279.82 42.54L287.67 41.12L295.62 40L303.66 39.19L311.79 38.7L320 38.54L328.21 38.7L336.34 39.19ZM314.07 164.77L311.15 165.05L308.28 165.44L305.45 165.94L302.66 166.55L299.91 167.25L297.21 168.06L294.56 168.96L291.97 169.97L289.42 171.06L286.93 172.25L284.5 173.53L282.13 174.9L279.82 176.35L277.58 177.89L275.4 179.51L273.29 181.21L271.25 182.99L269.29 184.84L267.4 186.77L265.58 188.77L263.85 190.83L262.19 192.97L260.63 195.17L259.14 197.43L257.75 199.75L256.44 202.14L255.23 204.57L254.11 207.07L253.08 209.61L252.16 212.21L251.34 214.85L250.61 217.55L250 220.28L249.49 223.06L249.09 225.87L248.8 228.73L248.63 231.62L248.57 234.54L248.63 237.46L248.8 240.35L249.09 243.21L249.49 246.03L250 248.8L250.61 251.54L251.34 254.23L252.16 256.87L253.08 259.47L254.11 262.01L255.23 264.51L256.44 266.95L257.75 269.33L259.14 271.65L260.63 273.91L262.19 276.11L263.85 278.25L265.58 280.31L267.4 282.31L269.29 284.24L271.25 286.09L273.29 287.87L275.4 289.57L277.58 291.19L279.82 292.73L282.13 294.18L284.5 295.55L286.93 296.83L289.42 298.02L291.97 299.12L294.56 300.12L297.21 301.02L299.91 301.83L302.66 302.54L305.45 303.14L308.28 303.64L311.16 304.03L314.07 304.31L317.02 304.48L320 304.54L322.98 304.48L325.93 304.31L328.84 304.03L331.72 303.64L334.55 303.14L337.34 302.54L340.09 301.83L342.79 301.02L345.44 300.12L348.03 299.12L350.58 298.02L353.07 296.83L355.5 295.55L357.87 294.18L360.18 292.73L362.42 291.19L364.6 289.57L366.71 287.87L368.75 286.09L370.71 284.24L372.6 282.31L374.42 280.31L376.15 278.25L377.81 276.11L379.37 273.91L380.86 271.65L382.25 269.33L383.56 266.95L384.77 264.51L385.89 262.01L386.92 259.47L387.84 256.87L388.66 254.23L389.39 251.54L390 248.8L390.51 246.03L390.91 243.21L391.2 240.35L391.37 237.46L391.43 234.54L391.37 231.62L391.2 228.73L390.91 225.87L390.51 223.06L390 220.28L389.39 217.55L388.66 214.85L387.84 212.21L386.92 209.61L385.89 207.07L384.77 204.57L383.56 202.14L382.25 199.75L380.86 197.43L379.37 195.17L377.81 192.97L376.15 190.83L374.42 188.77L372.6 186.77L370.71 184.84L368.75 182.99L366.71 181.21L364.6 179.51L362.42 177.89L360.18 176.35L357.87 174.9L355.5 173.53L353.07 172.25L350.58 171.06L348.03 169.97L345.44 168.96L342.79 168.06L340.09 167.25L337.34 166.55L334.55 165.94L331.72 165.44L328.85 165.05L325.93 164.77L322.98 164.6L320 164.54L317.02 164.6L314.07 164.77Z" id="b39tbAWs6M"></path><path d="M415.62 239.34C415.62 288.29 373.26 328.03 321.09 328.03C268.92 328.03 226.57 288.29 226.57 239.34C226.57 190.4 268.92 150.66 321.09 150.66C373.26 150.66 415.62 190.4 415.62 239.34Z" id="kAwIoljLD"></path><path d="M319.57 132.87C310.25 139.84 235.69 195.59 226.37 202.56C225.83 203.01 225.47 203.62 225.47 204.29C225.47 217.13 225.47 319.89 225.47 332.73C225.47 333.34 226.01 333.85 226.66 333.85C233.12 333.85 284.74 333.85 291.19 333.85C291.85 333.85 292.39 333.34 292.39 332.73C292.39 324.91 292.39 262.37 292.39 254.55C292.39 253.93 292.92 253.43 293.58 253.43C299.08 253.43 343.05 253.43 348.55 253.43C349.21 253.43 349.74 253.93 349.74 254.55C349.74 262.37 349.74 324.91 349.74 332.73C349.74 333.34 350.28 333.85 350.94 333.85C357.39 333.85 409.01 333.85 415.47 333.85C416.12 333.85 416.66 333.34 416.66 332.73C416.66 319.89 416.66 217.13 416.66 204.29C416.66 203.62 416.3 202.95 415.76 202.56C409.55 197.91 378.48 174.68 322.56 132.87C321.16 132.42 320.17 132.42 319.57 132.87Z" id="aJth0E6s"></path><path d="M329.25 104.22C326.98 102.49 324.05 101.54 321.07 101.54C318.08 101.54 315.15 102.49 312.88 104.22C309.6 106.71 293.21 119.16 263.71 141.58C263.71 127.44 263.71 119.58 263.71 118.01C263.71 117.4 263.17 116.9 262.51 116.9C258.93 116.9 230.25 116.9 226.66 116.9C226.01 116.9 225.47 117.4 225.47 118.01C225.47 121.44 225.47 138.61 225.47 169.5C210.16 181.26 201.66 187.79 199.96 189.1C198.1 190.5 196.91 192.56 196.79 194.8C196.67 197.03 197.57 199.21 199.24 200.77C200.79 202.22 202.88 203.06 205.15 203.06C207.07 203.06 208.92 202.45 210.41 201.33C221.4 193.07 309.3 126.95 320.29 118.68C320.59 118.46 320.83 118.46 321.07 118.46C321.3 118.46 321.54 118.51 321.84 118.68C332.83 126.91 420.73 192.76 431.72 201C433.21 202.11 435.06 202.73 436.98 202.73C439.19 202.73 441.28 201.94 442.89 200.44C444.62 198.87 445.52 196.7 445.4 194.46C445.22 192.23 444.09 190.16 442.17 188.77C419.59 171.86 340.54 112.67 329.25 104.22Z" id="a1cwAUonVq"></path></defs><g><g><g><use xlink:href="#b39tbAWs6M" opacity="1" fill="#354db0" fill-opacity="1"></use><g><use xlink:href="#b39tbAWs6M" opacity="1" fill-opacity="0" stroke="#000000" stroke-width="1" stroke-opacity="0"></use></g></g><g><use xlink:href="#kAwIoljLD" opacity="1" fill="#354db0" fill-opacity="1"></use></g><g><use xlink:href="#aJth0E6s" opacity="1" fill="#ffffff" fill-opacity="1"></use><g><use xlink:href="#aJth0E6s" opacity="1" fill-opacity="0" stroke="#000000" stroke-width="1" stroke-opacity="0"></use></g></g><g><use xlink:href="#a1cwAUonVq" opacity="1" fill="#ffffff" fill-opacity="1"></use><g><use xlink:href="#a1cwAUonVq" opacity="1" fill-opacity="0" stroke="#000000" stroke-width="1" stroke-opacity="0"></use></g></g></g></g></svg>