<?xml version="1.0" encoding="UTF-8" standalone="no"?>
<!DOCTYPE svg PUBLIC "-//W3C//DTD SVG 1.1//EN" "http://www.w3.org/Graphics/SVG/1.1/DTD/svg11.dtd">
<svg version="1.1" xmlns="http://www.w3.org/2000/svg" xmlns:xlink="http://www.w3.org/1999/xlink" preserveAspectRatio="xMidYMid meet" viewBox="0 0 640 640" width="200" height="200"><defs><path d="M336.34 40.65L344.38 41.46L352.33 42.58L360.18 44L367.92 45.72L375.54 47.74L383.04 50.03L390.42 52.61L397.66 55.47L404.76 58.58L411.71 61.96L418.51 65.59L425.15 69.47L431.62 73.59L437.92 77.94L444.04 82.53L449.97 87.33L455.71 92.35L461.25 97.57L466.59 103L471.71 108.63L476.61 114.44L481.28 120.44L485.72 126.61L489.93 132.95L493.89 139.46L497.59 146.12L501.04 152.94L504.22 159.9L507.13 166.99L509.76 174.22L512.11 181.57L514.16 189.04L515.92 196.63L517.37 204.32L518.51 212.1L519.33 219.99L519.83 227.95L520 236L519.63 247.15L518.55 258.54L516.79 270.14L514.4 281.91L511.41 293.85L507.85 305.91L503.77 318.07L499.2 330.3L494.18 342.59L488.75 354.89L482.94 367.19L476.8 379.45L470.36 391.65L463.65 403.77L456.72 415.77L449.6 427.63L442.33 439.32L434.95 450.82L427.49 462.1L420 473.13L412.51 483.88L405.05 494.33L397.67 504.44L390.4 514.21L383.28 523.59L376.35 532.56L369.64 541.09L363.2 549.16L357.06 556.74L351.25 563.8L345.82 570.31L340.8 576.26L336.23 581.6L332.15 586.32L328.59 590.39L325.6 593.78L323.21 596.46L321.45 598.41L320.37 599.6L320 600L319.63 599.6L318.55 598.41L316.79 596.46L314.4 593.78L311.41 590.39L307.85 586.32L303.77 581.6L299.2 576.26L294.18 570.31L288.75 563.8L282.94 556.74L276.8 549.16L270.36 541.09L263.65 532.56L256.72 523.59L249.6 514.21L242.33 504.44L234.95 494.33L227.49 483.88L220 473.13L212.51 462.1L205.05 450.82L197.67 439.32L190.4 427.63L183.28 415.77L176.35 403.77L169.64 391.65L163.2 379.45L157.06 367.19L151.25 354.89L145.82 342.59L140.8 330.3L136.23 318.07L132.15 305.91L128.59 293.85L125.6 281.91L123.21 270.14L121.45 258.54L120.37 247.15L120 236L120.17 227.95L120.67 219.99L121.49 212.1L122.63 204.32L124.08 196.63L125.84 189.04L127.89 181.57L130.24 174.22L132.87 166.99L135.78 159.9L138.96 152.94L142.41 146.12L146.11 139.46L150.07 132.95L154.28 126.61L158.72 120.44L163.39 114.44L168.29 108.63L173.41 103L178.75 97.57L184.29 92.35L190.03 87.33L195.96 82.53L202.08 77.94L208.38 73.59L214.85 69.47L221.49 65.59L228.29 61.96L235.24 58.58L242.34 55.47L249.58 52.61L256.96 50.03L264.46 47.74L272.08 45.72L279.82 44L287.67 42.58L295.62 41.46L303.66 40.65L311.79 40.16L320 40L328.21 40.16L336.34 40.65ZM314.07 166.23L311.15 166.51L308.28 166.9L305.45 167.4L302.66 168L299.91 168.71L297.21 169.52L294.56 170.42L291.97 171.43L289.42 172.52L286.93 173.71L284.5 174.99L282.13 176.36L279.82 177.81L277.58 179.35L275.4 180.97L273.29 182.67L271.25 184.45L269.29 186.3L267.4 188.23L265.58 190.23L263.85 192.29L262.19 194.43L260.63 196.63L259.14 198.89L257.75 201.21L256.44 203.6L255.23 206.03L254.11 208.53L253.08 211.07L252.16 213.67L251.34 216.31L250.61 219.01L250 221.74L249.49 224.52L249.09 227.33L248.8 230.19L248.63 233.08L248.57 236L248.63 238.92L248.8 241.81L249.09 244.67L249.49 247.49L250 250.26L250.61 253L251.34 255.69L252.16 258.33L253.08 260.93L254.11 263.47L255.23 265.97L256.44 268.41L257.75 270.79L259.14 273.11L260.63 275.37L262.19 277.57L263.85 279.71L265.58 281.77L267.4 283.77L269.29 285.7L271.25 287.55L273.29 289.33L275.4 291.03L277.58 292.65L279.82 294.19L282.13 295.64L284.5 297.01L286.93 298.29L289.42 299.48L291.97 300.58L294.56 301.58L297.21 302.48L299.91 303.29L302.66 304L305.45 304.6L308.28 305.1L311.16 305.49L314.07 305.77L317.02 305.94L320 306L322.98 305.94L325.93 305.77L328.84 305.49L331.72 305.1L334.55 304.6L337.34 304L340.09 303.29L342.79 302.48L345.44 301.58L348.03 300.58L350.58 299.48L353.07 298.29L355.5 297.01L357.87 295.64L360.18 294.19L362.42 292.65L364.6 291.03L366.71 289.33L368.75 287.55L370.71 285.7L372.6 283.77L374.42 281.77L376.15 279.71L377.81 277.57L379.37 275.37L380.86 273.11L382.25 270.79L383.56 268.41L384.77 265.97L385.89 263.47L386.92 260.93L387.84 258.33L388.66 255.69L389.39 253L390 250.26L390.51 247.49L390.91 244.67L391.2 241.81L391.37 238.92L391.43 236L391.37 233.08L391.2 230.19L390.91 227.33L390.51 224.52L390 221.74L389.39 219.01L388.66 216.31L387.84 213.67L386.92 211.07L385.89 208.53L384.77 206.03L383.56 203.6L382.25 201.21L380.86 198.89L379.37 196.63L377.81 194.43L376.15 192.29L374.42 190.23L372.6 188.23L370.71 186.3L368.75 184.45L366.71 182.67L364.6 180.97L362.42 179.35L360.18 177.81L357.87 176.36L355.5 174.99L353.07 173.71L350.58 172.52L348.03 171.43L345.44 170.42L342.79 169.52L340.09 168.71L337.34 168L334.55 167.4L331.72 166.9L328.85 166.51L325.93 166.23L322.98 166.06L320 166L317.02 166.06L314.07 166.23Z" id="a8DNOWGLZy"></path><path d="M425.11 230.95C425.11 300.64 378.5 357.23 321.09 357.23C263.69 357.23 217.08 300.64 217.08 230.95C217.08 161.25 263.69 104.67 321.09 104.67C378.5 104.67 425.11 161.25 425.11 230.95Z" id="a4rs048UnK"></path><path d="M328.74 118.51L333.06 118.58L337.34 118.69L341.57 118.83L345.76 119.01L349.89 119.24L353.97 119.52L357.98 119.84L361.94 120.22L365.82 120.66L369.63 121.16L373.37 121.73L377.02 122.36L380.59 123.06L384.06 123.84L387.45 124.7L390.73 125.64L393.92 126.67L397 127.78L399.97 128.98L402.82 130.29L405.56 131.69L408.18 133.19L410.66 134.8L413.02 136.51L415.24 138.34L417.33 140.29L419.27 142.36L421.06 144.54L422.7 146.86L424.19 149.3L425.52 151.88L426.68 154.59L427.68 157.44L428.5 160.44L429.15 163.58L429.62 166.88L429.9 170.32L430 173.93L430 307.88L429.98 308.76L429.94 309.61L429.86 310.44L429.75 311.24L429.61 312.01L429.45 312.76L429.25 313.49L429.03 314.2L428.79 314.88L428.52 315.55L428.23 316.2L427.91 316.83L427.57 317.45L427.22 318.05L426.84 318.63L426.44 319.2L426.02 319.76L425.59 320.31L425.13 320.85L424.67 321.38L424.18 321.9L423.69 322.42L423.18 322.93L422.66 323.43L422.12 323.94L421.58 324.44L421.02 324.93L420.46 325.43L419.89 325.93L419.31 326.42L418.73 326.93L418.14 327.43L417.55 327.94L416.95 328.46L416.35 328.98L415.74 329.51L415.14 330.05L414.54 330.6L413.93 331.16L413.33 331.73L413.33 356.99L413.32 357.56L413.29 358.13L413.23 358.7L413.16 359.25L413.06 359.8L412.94 360.35L412.81 360.88L412.65 361.41L412.47 361.92L412.28 362.43L412.07 362.93L411.84 363.42L411.59 363.9L411.33 364.36L411.05 364.81L410.75 365.26L410.44 365.69L410.11 366.1L409.77 366.51L409.42 366.89L409.05 367.27L408.66 367.63L408.27 367.97L407.86 368.3L407.44 368.61L407.01 368.91L406.57 369.18L406.11 369.44L405.65 369.69L405.18 369.91L404.69 370.11L404.2 370.3L403.7 370.46L403.19 370.61L402.68 370.73L402.15 370.83L401.63 370.91L401.09 370.97L400.55 371L400 371.02L386.67 371.02L386.12 371L385.58 370.97L385.04 370.91L384.51 370.83L383.99 370.73L383.47 370.61L382.97 370.46L382.46 370.3L381.97 370.11L381.49 369.91L381.02 369.69L380.55 369.44L380.1 369.18L379.66 368.91L379.23 368.61L378.81 368.3L378.4 367.97L378 367.63L377.62 367.27L377.25 366.89L376.9 366.5L376.55 366.1L376.23 365.69L375.92 365.26L375.62 364.81L375.34 364.36L375.07 363.89L374.83 363.42L374.6 362.93L374.39 362.43L374.19 361.92L374.02 361.41L373.86 360.88L373.72 360.35L373.61 359.8L373.51 359.25L373.43 358.7L373.38 358.13L373.34 357.56L373.33 356.99L373.33 342.95L266.67 342.95L266.67 356.99L266.66 357.56L266.62 358.13L266.57 358.7L266.49 359.25L266.39 359.8L266.28 360.35L266.14 360.88L265.98 361.41L265.81 361.92L265.61 362.43L265.4 362.93L265.17 363.42L264.93 363.9L264.66 364.36L264.38 364.81L264.09 365.26L263.77 365.69L263.45 366.1L263.11 366.51L262.75 366.89L262.38 367.27L262 367.63L261.6 367.97L261.19 368.3L260.77 368.61L260.34 368.91L259.9 369.18L259.45 369.44L258.98 369.69L258.51 369.91L258.03 370.11L257.54 370.3L257.04 370.46L256.53 370.61L256.01 370.73L255.49 370.83L254.96 370.91L254.42 370.97L253.88 371L253.33 371.02L240 371.02L239.45 371L238.91 370.97L238.37 370.91L237.84 370.83L237.32 370.73L236.81 370.61L236.3 370.46L235.8 370.3L235.31 370.11L234.82 369.91L234.35 369.69L233.89 369.44L233.43 369.18L232.99 368.91L232.56 368.61L232.14 368.3L231.73 367.97L231.34 367.63L230.95 367.27L230.58 366.89L230.23 366.5L229.89 366.1L229.56 365.69L229.25 365.26L228.95 364.81L228.67 364.36L228.41 363.89L228.16 363.42L227.93 362.93L227.72 362.43L227.52 361.92L227.35 361.41L227.19 360.88L227.06 360.35L226.94 359.8L226.84 359.25L226.77 358.7L226.71 358.13L226.68 357.56L226.67 356.99L226.67 331.73L226.27 331.34L225.87 330.94L225.46 330.53L225.06 330.1L224.66 329.67L224.25 329.23L223.85 328.77L223.44 328.31L223.03 327.83L222.62 327.35L222.22 326.85L221.81 326.34L221.4 325.82L220.98 325.3L220.57 324.76L220.16 324.21L219.75 323.65L219.33 323.08L218.92 322.5L218.5 321.91L218.08 321.31L217.66 320.69L217.25 320.07L216.83 319.44L216.41 318.79L215.98 318.14L215.56 317.48L215.14 316.8L214.72 316.11L214.29 315.42L213.87 314.71L213.44 313.99L213.01 313.27L212.58 312.53L212.16 311.78L211.73 311.02L211.3 310.25L210.86 309.47L210.43 308.68L210 307.88L210 173.93L210.1 170.32L210.38 166.88L210.85 163.58L211.5 160.44L212.32 157.44L213.32 154.59L214.48 151.88L215.81 149.3L217.3 146.86L218.94 144.54L220.73 142.36L222.67 140.29L224.76 138.34L226.98 136.51L229.34 134.8L231.82 133.19L234.44 131.69L237.18 130.29L240.03 128.98L243 127.78L246.08 126.67L249.27 125.64L252.55 124.7L255.94 123.84L259.41 123.06L262.98 122.36L266.63 121.73L270.37 121.16L274.18 120.66L278.06 120.22L282.02 119.84L286.03 119.52L290.11 119.24L294.24 119.01L298.43 118.83L302.66 118.69L306.94 118.58L311.26 118.51L315.61 118.47L320 118.46L324.39 118.47L328.74 118.51ZM257.33 276.47L256.05 276.68L254.79 276.98L253.57 277.34L252.38 277.79L251.24 278.31L250.14 278.9L249.08 279.55L248.06 280.27L247.1 281.06L246.19 281.91L245.33 282.81L244.52 283.77L243.78 284.79L243.09 285.85L242.47 286.97L241.91 288.13L241.41 289.33L240.99 290.58L240.64 291.86L240.36 293.19L240.16 294.54L240.04 295.93L240 297.35L240.04 298.76L240.16 300.15L240.36 301.51L240.64 302.83L240.99 304.12L241.41 305.36L241.91 306.57L242.47 307.73L243.09 308.84L243.78 309.91L244.52 310.92L245.33 311.88L246.19 312.79L247.1 313.63L248.06 314.42L249.08 315.14L250.14 315.8L251.24 316.39L252.38 316.9L253.57 317.35L254.79 317.72L256.05 318.01L257.33 318.22L258.65 318.35L260 318.39L261.35 318.35L262.67 318.22L263.95 318.01L265.21 317.72L266.43 317.35L267.62 316.9L268.76 316.39L269.86 315.8L270.92 315.14L271.94 314.42L272.9 313.63L273.81 312.79L274.67 311.88L275.48 310.92L276.22 309.91L276.91 308.84L277.53 307.73L278.09 306.57L278.59 305.36L279.01 304.12L279.36 302.83L279.64 301.51L279.84 300.15L279.96 298.76L280 297.35L279.96 295.93L279.84 294.54L279.64 293.19L279.36 291.86L279.01 290.58L278.59 289.33L278.09 288.13L277.53 286.97L276.91 285.85L276.22 284.79L275.48 283.77L274.67 282.81L273.81 281.91L272.9 281.06L271.94 280.27L270.92 279.55L269.86 278.9L268.76 278.31L267.62 277.79L266.43 277.34L265.21 276.98L263.95 276.68L262.67 276.47L261.35 276.34L260 276.3L258.65 276.34L257.33 276.47ZM377.33 276.47L376.05 276.68L374.79 276.98L373.57 277.34L372.38 277.79L371.24 278.31L370.14 278.9L369.08 279.55L368.06 280.27L367.1 281.06L366.19 281.91L365.33 282.81L364.52 283.77L363.78 284.79L363.09 285.85L362.47 286.97L361.91 288.13L361.41 289.33L360.99 290.58L360.64 291.86L360.36 293.19L360.16 294.54L360.04 295.93L360 297.35L360.04 298.76L360.16 300.15L360.36 301.51L360.64 302.83L360.99 304.12L361.41 305.36L361.91 306.57L362.47 307.73L363.09 308.84L363.78 309.91L364.52 310.92L365.33 311.88L366.19 312.79L367.1 313.63L368.06 314.42L369.08 315.14L370.14 315.8L371.24 316.39L372.38 316.9L373.57 317.35L374.79 317.72L376.05 318.01L377.33 318.22L378.65 318.35L380 318.39L381.35 318.35L382.67 318.22L383.95 318.01L385.21 317.72L386.43 317.35L387.62 316.9L388.76 316.39L389.86 315.8L390.92 315.14L391.94 314.42L392.9 313.63L393.81 312.79L394.67 311.88L395.48 310.92L396.22 309.91L396.91 308.84L397.53 307.73L398.09 306.57L398.59 305.36L399.01 304.12L399.36 302.83L399.64 301.51L399.84 300.15L399.96 298.76L400 297.35L399.96 295.93L399.84 294.54L399.64 293.19L399.36 291.86L399.01 290.58L398.59 289.33L398.09 288.13L397.53 286.97L396.91 285.85L396.22 284.79L395.48 283.77L394.67 282.81L393.81 281.91L392.9 281.06L391.94 280.27L390.92 279.55L389.86 278.9L388.76 278.31L387.62 277.79L386.43 277.34L385.21 276.98L383.95 276.68L382.67 276.47L381.35 276.34L380 276.3L378.65 276.34L377.33 276.47ZM240 237.72L400 237.72L400 167.57L240 167.57L240 237.72Z" id="bIc6pkEAU"></path></defs><g><g><g><use xlink:href="#a8DNOWGLZy" opacity="1" fill="#56c831" fill-opacity="1"></use><g><use xlink:href="#a8DNOWGLZy" opacity="1" fill-opacity="0" stroke="#000000" stroke-width="1" stroke-opacity="0"></use></g></g><g><use xlink:href="#a4rs048UnK" opacity="1" fill="#56c831" fill-opacity="1"></use><g><use xlink:href="#a4rs048UnK" opacity="1" fill-opacity="0" stroke="#56c831" stroke-width="1" stroke-opacity="1"></use></g></g><g><use xlink:href="#bIc6pkEAU" opacity="1" fill="#f5f1f1" fill-opacity="1"></use><g><use xlink:href="#bIc6pkEAU" opacity="1" fill-opacity="0" stroke="#000000" stroke-width="1" stroke-opacity="0"></use></g></g></g></g></svg>