<?xml version="1.0" encoding="UTF-8" standalone="no"?>
<!DOCTYPE svg PUBLIC "-//W3C//DTD SVG 1.1//EN" "http://www.w3.org/Graphics/SVG/1.1/DTD/svg11.dtd">
<svg version="1.1" xmlns="http://www.w3.org/2000/svg" xmlns:xlink="http://www.w3.org/1999/xlink" preserveAspectRatio="xMidYMid meet" viewBox="0 0 640 640" width="200" height="200"><defs><path d="M336.34 40.65L344.38 41.46L352.33 42.58L360.18 44L367.92 45.72L375.54 47.74L383.04 50.03L390.42 52.61L397.66 55.47L404.76 58.58L411.71 61.96L418.51 65.59L425.15 69.47L431.62 73.59L437.92 77.94L444.04 82.53L449.97 87.33L455.71 92.35L461.25 97.57L466.59 103L471.71 108.63L476.61 114.44L481.28 120.44L485.72 126.61L489.93 132.95L493.89 139.46L497.59 146.12L501.04 152.94L504.22 159.9L507.13 166.99L509.76 174.22L512.11 181.57L514.16 189.04L515.92 196.63L517.37 204.32L518.51 212.1L519.33 219.99L519.83 227.95L520 236L519.63 247.15L518.55 258.54L516.79 270.14L514.4 281.91L511.41 293.85L507.85 305.91L503.77 318.07L499.2 330.3L494.18 342.59L488.75 354.89L482.94 367.19L476.8 379.45L470.36 391.65L463.65 403.77L456.72 415.77L449.6 427.63L442.33 439.32L434.95 450.82L427.49 462.1L420 473.13L412.51 483.88L405.05 494.33L397.67 504.44L390.4 514.21L383.28 523.59L376.35 532.56L369.64 541.09L363.2 549.16L357.06 556.74L351.25 563.8L345.82 570.31L340.8 576.26L336.23 581.6L332.15 586.32L328.59 590.39L325.6 593.78L323.21 596.46L321.45 598.41L320.37 599.6L320 600L319.63 599.6L318.55 598.41L316.79 596.46L314.4 593.78L311.41 590.39L307.85 586.32L303.77 581.6L299.2 576.26L294.18 570.31L288.75 563.8L282.94 556.74L276.8 549.16L270.36 541.09L263.65 532.56L256.72 523.59L249.6 514.21L242.33 504.44L234.95 494.33L227.49 483.88L220 473.13L212.51 462.1L205.05 450.82L197.67 439.32L190.4 427.63L183.28 415.77L176.35 403.77L169.64 391.65L163.2 379.45L157.06 367.19L151.25 354.89L145.82 342.59L140.8 330.3L136.23 318.07L132.15 305.91L128.59 293.85L125.6 281.91L123.21 270.14L121.45 258.54L120.37 247.15L120 236L120.17 227.95L120.67 219.99L121.49 212.1L122.63 204.32L124.08 196.63L125.84 189.04L127.89 181.57L130.24 174.22L132.87 166.99L135.78 159.9L138.96 152.94L142.41 146.12L146.11 139.46L150.07 132.95L154.28 126.61L158.72 120.44L163.39 114.44L168.29 108.63L173.41 103L178.75 97.57L184.29 92.35L190.03 87.33L195.96 82.53L202.08 77.94L208.38 73.59L214.85 69.47L221.49 65.59L228.29 61.96L235.24 58.58L242.34 55.47L249.58 52.61L256.96 50.03L264.46 47.74L272.08 45.72L279.82 44L287.67 42.58L295.62 41.46L303.66 40.65L311.79 40.16L320 40L328.21 40.16L336.34 40.65Z" id="a27dm7gpHv"></path><path d="M333.33 272.56L333.33 359.23L306.67 359.23L306.67 272.56L220 272.56L220 245.9L306.67 245.9L306.67 159.23L333.33 159.23L333.33 245.9L420 245.9L420 272.56L333.33 272.56Z" id="b2XrHNGM8"></path></defs><g><g><g><use xlink:href="#a27dm7gpHv" opacity="1" fill="#c92020" fill-opacity="1"></use><g><use xlink:href="#a27dm7gpHv" opacity="1" fill-opacity="0" stroke="#000000" stroke-width="1" stroke-opacity="0"></use></g></g><g><use xlink:href="#b2XrHNGM8" opacity="1" fill="#ffffff" fill-opacity="1"></use><g><use xlink:href="#b2XrHNGM8" opacity="1" fill-opacity="0" stroke="#000000" stroke-width="1" stroke-opacity="0"></use></g></g></g></g></svg>